HIERARCHY
ROOT root
{
	OFFSET	0.000000	0.000000	0.000000
	CHANNELS 6 Xposition Yposition Zposition Zrotation Yrotation Xrotation
	JOINT lhipjoint
	{
		OFFSET	0.000000	0.000000	0.000000
		CHANNELS 3 Zrotation Yrotation Xrotation
		JOINT lfemur
		{
			OFFSET	1.656736	-1.802822	0.624766
			CHANNELS 3 Zrotation Yrotation Xrotation
			JOINT ltibia
			{
				OFFSET	2.597200	-7.135754	0.000000
				CHANNELS 3 Zrotation Yrotation Xrotation
				JOINT lfoot
				{
					OFFSET	2.492357	-6.847701	0.000000
					CHANNELS 3 Zrotation Yrotation Xrotation
					JOINT ltoes
					{
						OFFSET	0.197038	-0.541357	2.145811
						CHANNELS 3 Zrotation Yrotation Xrotation
						End Site
						{
							OFFSET	0.000000	-0.000000	1.112490
						}
					}
				}
			}
		}
	}
	JOINT rhipjoint
	{
		OFFSET	0.000000	0.000000	0.000000
		CHANNELS 3 Zrotation Yrotation Xrotation
		JOINT rfemur
		{
			OFFSET	-1.610701	-1.802823	0.624765
			CHANNELS 3 Zrotation Yrotation Xrotation
			JOINT rtibia
			{
				OFFSET	-2.595021	-7.129768	0.000000
				CHANNELS 3 Zrotation Yrotation Xrotation
				JOINT rfoot
				{
					OFFSET	-2.467804	-6.780241	0.000000
					CHANNELS 3 Zrotation Yrotation Xrotation
					JOINT rtoes
					{
						OFFSET	-0.230239	-0.632577	2.133676
						CHANNELS 3 Zrotation Yrotation Xrotation
						End Site
						{
							OFFSET	-0.000000	-0.000000	1.115690
						}
					}
				}
			}
		}
	}
	JOINT lowerback
	{
		OFFSET	0.000000	0.000000	0.000000
		CHANNELS 3 Zrotation Yrotation Xrotation
		JOINT upperback
		{
			OFFSET	0.019612	2.054496	-0.141116
			CHANNELS 3 Zrotation Yrotation Xrotation
			JOINT thorax
			{
				OFFSET	0.010210	2.064356	-0.059210
				CHANNELS 3 Zrotation Yrotation Xrotation
				JOINT lowerneck
				{
					OFFSET	0.001509	2.068054	0.008037
					CHANNELS 3 Zrotation Yrotation Xrotation
					JOINT upperneck
					{
						OFFSET	0.007130	1.567112	0.149683
						CHANNELS 3 Zrotation Yrotation Xrotation
						JOINT head
						{
							OFFSET	0.034286	1.560409	-0.100058
							CHANNELS 3 Zrotation Yrotation Xrotation
							End Site
							{
								OFFSET	0.013051	1.625595	-0.052648
							}
						}
					}
				}
				JOINT lclavicle
				{
					OFFSET	0.001509	2.068054	0.008037
					CHANNELS 3 Zrotation Yrotation Xrotation
					JOINT lhumerus
					{
						OFFSET	3.542050	0.904362	-0.173638
						CHANNELS 3 Zrotation Yrotation Xrotation
						JOINT lradius
						{
							OFFSET	4.865130	-0.000000	-0.000000
							CHANNELS 3 Zrotation Yrotation Xrotation
							JOINT lwrist
							{
								OFFSET	3.355540	-0.000000	0.000000
								CHANNELS 3 Zrotation Yrotation Xrotation
								JOINT lhand
								{
									OFFSET	1.677770	-0.000000	0.000000
									CHANNELS 3 Zrotation Yrotation Xrotation
									JOINT lfingers
									{
										OFFSET	0.661175	-0.000000	0.000000
										CHANNELS 3 Zrotation Yrotation Xrotation
										End Site
										{
											OFFSET	0.533057	-0.000000	0.000000
										}
									}
								}
								JOINT lthumb
								{
									OFFSET	1.677770	-0.000000	0.000000
									CHANNELS 3 Zrotation Yrotation Xrotation
									End Site
									{
										OFFSET	0.541196	-0.000000	0.541196
									}
								}
							}
						}
					}
				}
				JOINT rclavicle
				{
					OFFSET	0.001509	2.068054	0.008037
					CHANNELS 3 Zrotation Yrotation Xrotation
					JOINT rhumerus
					{
						OFFSET	-3.498016	0.759940	-0.326156
						CHANNELS 3 Zrotation Yrotation Xrotation
						JOINT rradius
						{
							OFFSET	-5.026490	-0.000000	0.000000
							CHANNELS 3 Zrotation Yrotation Xrotation
							JOINT rwrist
							{
								OFFSET	-3.364310	-0.000000	0.000000
								CHANNELS 3 Zrotation Yrotation Xrotation
								JOINT rhand
								{
									OFFSET	-1.682160	-0.000000	0.000000
									CHANNELS 3 Zrotation Yrotation Xrotation
									JOINT rfingers
									{
										OFFSET	-0.730406	-0.000000	0.000000
										CHANNELS 3 Zrotation Yrotation Xrotation
										End Site
										{
											OFFSET	-0.588872	-0.000000	0.000000
										}
									}
								}
								JOINT rthumb
								{
									OFFSET	-1.682160	-0.000000	0.000000
									CHANNELS 3 Zrotation Yrotation Xrotation
									End Site
									{
										OFFSET	-0.597863	-0.000000	0.597863
									}
								}
							}
						}
					}
				}
			}
		}
	}
}
MOTION
Frames:	11
Frame Time:	0.008333
	9.287220	16.950001	-34.276199	1.161840	3.393861	8.209442	0.000000	0.000000	0.000000	-24.781139	-1.363755	14.554399	1.641760	8.076227	22.945848	1.565023	16.945396	23.763792	0.000000	0.000000	0.000000	0.000000	0.000000	0.000000	17.740276	18.680218	-36.105366	-6.521539	-14.915381	47.040615	-1.107221	-7.063481	-23.609915	-1.183535	6.904228	-19.431952	-2.185410	-4.343270	6.782850	1.546970	-5.893950	0.468644	3.340910	-2.897590	-2.919830	-2.788720	3.234250	-15.460702	-0.069758	4.711051	-4.943671	0.699328	2.382390	0.952485	-2.788720	-0.000000	0.000000	-72.111145	-6.853892	60.495361	128.034729	-53.758030	-92.248474	-0.000000	0.000002	-33.802593	32.913940	3.590024	2.320935	-7.125019	0.000000	0.000000	5.180243	34.218864	-1.375110	-2.788720	-0.000000	0.000000	79.026321	-42.809414	40.437977	-73.916557	58.999653	-46.118126	0.000000	0.000000	-13.428697	-48.303505	34.506905	-32.452698	7.125019	0.000000	0.000000	-8.062001	15.572005	-10.014085
	9.273270	17.016600	-33.905899	1.840270	3.362760	7.902480	0.000000	0.000000	0.000000	-25.371183	-1.286846	14.485672	1.848742	8.543643	24.377892	1.429507	18.676720	23.467127	0.000000	0.000000	0.000000	0.000000	0.000000	0.000000	17.371241	18.217770	-34.774776	-5.722473	-14.153903	43.857487	-1.253403	-6.354945	-24.319883	-1.337362	7.322404	-20.674112	-2.794840	-4.354760	6.806550	1.376900	-5.960890	0.545478	3.504540	-2.927830	-2.805030	-3.063600	3.325650	-15.690900	0.103655	4.886700	-4.591190	0.822386	2.473910	1.094980	-3.063600	0.000000	0.000000	-71.964645	-5.922280	61.423931	127.006920	-54.133575	-91.417519	0.000001	-0.000002	-34.375690	32.532654	2.716259	1.731446	-7.125019	0.000000	0.000000	4.832772	33.173141	-1.405040	-3.063600	0.000000	0.000000	79.565598	-42.273491	40.058643	-74.457634	59.067265	-46.582081	0.000000	-0.000002	-13.194592	-47.847706	34.045265	-31.735142	7.125019	0.000000	0.000000	-7.982038	14.834662	-9.841314
	9.268420	17.025801	-33.555599	3.029030	3.485980	7.798910	0.000000	0.000000	0.000000	-26.391760	-0.645675	13.925506	2.278170	9.422926	27.127457	1.422103	17.712553	23.103474	0.000000	0.000000	0.000000	0.000000	0.000000	0.000000	16.281063	17.567705	-34.416828	-5.283985	-13.696643	42.035595	-1.453750	-5.248029	-25.199560	-1.328207	7.298305	-20.602184	-3.800540	-4.454190	6.566960	1.161780	-6.164280	0.737447	3.817580	-3.033730	-2.375060	-3.511611	3.345600	-16.295702	0.066277	5.014520	-4.129990	0.919030	2.534849	1.339870	-3.511610	0.000000	0.000000	-72.210770	-5.002337	62.101059	125.855141	-54.536278	-90.481758	0.000000	0.000000	-34.166599	32.711746	1.784551	1.145844	-7.125019	0.000000	0.000000	4.936385	32.075249	-1.566524	-3.511610	0.000000	0.000000	79.821259	-41.155067	39.756203	-74.802826	59.109077	-46.878246	0.000000	-0.000002	-12.658199	-47.429512	34.016048	-31.341398	7.125019	0.000000	0.000000	-7.777430	14.594559	-9.561836
	9.249270	17.016300	-33.220600	3.809540	3.308000	7.676381	0.000000	0.000000	0.000000	-26.998140	-0.120886	12.950995	2.827423	10.410306	30.315901	1.229295	16.515917	21.472794	0.000000	0.000000	0.000000	0.000000	0.000000	0.000000	15.787126	17.272343	-33.726383	-4.819569	-13.177676	40.037270	-1.447402	-4.802414	-24.901876	-1.314362	7.261665	-20.492929	-4.358211	-4.225891	6.341811	0.692170	-5.890860	1.240460	3.576080	-2.919470	-1.747560	-2.839370	3.222760	-17.593702	-0.472634	4.783141	-3.872510	0.656004	2.387899	1.683550	-2.839370	-0.000000	0.000000	-71.759468	-4.802049	62.996616	124.658073	-54.935207	-89.504333	0.000000	-0.000002	-33.849190	32.360302	1.981773	1.255291	-7.125019	0.000000	0.000000	4.662207	32.302418	-1.453417	-2.839370	-0.000000	0.000000	81.417915	-39.345093	38.605667	-75.038063	59.136993	-47.080132	0.000000	0.000000	-12.166300	-47.368423	34.005512	-31.280010	7.125019	0.000000	0.000000	-7.749564	14.552748	-9.523001
	9.246830	17.017700	-32.897400	3.177830	3.269530	7.995680	0.000000	0.000000	0.000000	-26.198032	-0.374578	11.129910	3.569314	11.564102	34.206863	0.751324	13.987676	17.104914	0.000000	0.000000	0.000000	0.000000	0.000000	0.000000	16.761076	17.033676	-33.585365	-4.488204	-12.783171	38.562122	-1.381637	-4.599023	-24.283848	-1.355376	7.369582	-20.815018	-3.408140	-4.164939	6.161770	0.834257	-5.742370	0.988677	3.188041	-2.839930	-2.000390	-2.333370	3.232521	-17.300100	-1.136310	4.705649	-3.893400	0.344747	2.323560	1.654090	-2.333370	-0.000000	-0.000000	-71.845680	-3.379117	63.669010	123.588516	-55.275299	-88.627075	-0.000000	0.000002	-33.158485	31.659161	2.433495	1.499769	-7.125019	0.000000	0.000000	4.112081	32.819016	-1.229761	-2.333370	-0.000000	-0.000000	81.929375	-38.423523	38.395672	-75.804810	59.224743	-47.738605	0.000000	0.000000	-12.100193	-47.301792	33.901012	-31.151974	7.125019	0.000000	0.000000	-7.749148	14.404833	-9.508177
	9.219480	17.016100	-32.563301	2.385830	2.976110	7.612751	0.000000	0.000000	0.000000	-25.131430	-0.234589	9.797783	4.498418	12.795655	38.608269	0.791984	12.133023	16.853022	0.000000	0.000000	0.000000	0.000000	0.000000	0.000000	18.257046	16.928381	-32.453411	-4.265752	-12.505883	37.545918	-1.329659	-4.749665	-23.959213	-1.325709	7.291707	-20.582502	-2.762200	-3.898710	6.504419	0.971817	-5.350461	1.010070	2.974850	-2.643150	-2.245430	-1.265150	3.195420	-17.446699	-2.089590	4.489791	-3.440090	-0.147629	2.166480	1.886500	-1.265150	-0.000000	0.000000	-71.811768	-2.068456	64.401779	122.314056	-55.661110	-87.577141	0.000000	0.000000	-32.475899	31.342525	1.704261	1.037679	-7.125019	0.000000	0.000000	3.831778	31.960077	-1.225060	-1.265150	-0.000000	0.000000	82.799942	-37.281635	37.895508	-76.510345	59.301125	-48.345036	0.000000	0.000000	-11.932899	-46.823967	34.453373	-31.087969	7.125019	0.000000	0.000000	-7.325662	14.778158	-9.014983
	9.210440	16.998301	-32.235298	2.612970	2.664571	7.719350	0.000000	0.000000	0.000000	-25.205389	-0.335442	7.747699	5.601013	14.030227	43.358635	0.701795	12.058569	16.044680	0.000000	0.000000	0.000000	0.000000	0.000000	0.000000	18.427588	16.655300	-32.003540	-4.147884	-12.354641	36.998356	-1.262646	-5.202916	-23.684656	-1.262954	7.123688	-20.082329	-3.031560	-3.957009	6.572929	1.151920	-5.446720	0.813239	3.331080	-2.682150	-2.437550	-1.885300	3.301360	-17.172298	-2.047720	4.739660	-3.442750	-0.016601	2.299270	1.819960	-1.885300	0.000000	0.000000	-72.681038	0.020433	64.379021	120.923279	-56.058849	-86.426010	0.000000	0.000000	-31.663900	31.031029	0.375668	0.226002	-7.125019	0.000000	0.000000	3.534552	30.408077	-1.261455	-1.885300	0.000000	0.000000	82.135406	-35.811951	38.646748	-77.296265	59.381336	-49.021103	0.000000	0.000000	-11.880598	-46.711567	34.917862	-31.285521	7.125019	0.000000	0.000000	-7.116822	15.230370	-8.794064
	9.216220	16.950399	-31.922701	3.313030	2.269410	7.612900	0.000000	0.000000	0.000000	-25.911997	-0.358866	5.808440	6.814312	15.173516	48.168503	0.411124	13.496131	13.905878	1.379227	-7.431503	-21.000206	0.000000	0.000000	0.000000	18.114172	16.123594	-31.458328	-4.134600	-12.337399	36.936230	-1.177127	-5.582398	-23.215469	-1.396113	7.474973	-21.130377	-3.577920	-3.769020	6.827551	0.978547	-5.248980	0.820615	3.461060	-2.575930	-2.554340	-2.336770	3.230500	-16.705301	-1.824090	4.700030	-3.955269	0.112056	2.303120	1.546970	-2.336770	-0.000000	0.000000	-73.174698	1.858703	64.802872	119.553185	-56.427803	-85.286880	0.000000	0.000000	-30.964390	31.010708	0.244846	0.147183	-7.125019	0.000000	0.000000	3.513348	30.255760	-1.266655	-2.336770	-0.000000	0.000000	82.392761	-34.109612	38.548939	-78.374687	59.483112	-49.949661	0.000000	0.000000	-11.697192	-46.945747	34.451927	-31.195089	7.125019	0.000000	0.000000	-7.388329	14.835803	-9.098474
	9.215440	16.883801	-31.609400	3.412190	1.816840	7.291419	0.000000	0.000000	0.000000	-25.976538	-0.340245	3.985841	8.162081	16.237181	53.144390	0.310978	13.326096	12.838480	0.924644	-6.126073	-17.150654	0.000000	0.000000	0.000000	18.563099	15.635242	-30.540987	-4.186064	-12.403967	37.176441	-1.103383	-5.690356	-22.664433	-1.765794	8.360185	-23.813543	-3.637769	-3.531060	7.110809	0.952748	-4.943851	1.020920	3.457140	-2.426880	-2.527290	-2.036420	3.126900	-16.816099	-2.398780	4.515370	-4.173880	-0.133866	2.192470	1.515390	-2.036420	0.000000	0.000000	-73.525993	3.355666	64.966827	118.083466	-56.799374	-84.059662	-0.000000	0.000002	-30.636892	31.707016	0.683094	0.421988	-7.125019	0.000000	0.000000	4.082930	30.768383	-1.422729	-2.036420	0.000000	0.000000	82.674377	-31.924349	38.442066	-79.284332	59.561634	-50.733624	0.000000	-0.000002	-11.299998	-46.970402	34.097054	-30.986660	7.125019	0.000000	0.000000	-7.515866	14.458539	-9.222629
	9.209070	16.808800	-31.290400	2.887250	1.576500	6.646560	0.000000	0.000000	0.000000	-25.201794	-0.391195	2.581893	9.655708	17.211645	58.331333	0.086016	14.260320	10.987240	1.433237	-7.569504	-21.413944	0.000000	0.000000	0.000000	19.790434	15.143042	-29.037189	-4.255080	-12.492320	37.496628	-1.026928	-5.744503	-22.038464	-1.776543	8.384239	-23.887365	-3.140520	-3.413400	7.602590	1.097390	-4.753781	1.384370	3.334940	-2.342150	-2.468550	-1.611670	3.085060	-16.882299	-3.001640	4.382840	-4.504961	-0.408651	2.107710	1.441860	-1.611670	0.000000	0.000000	-73.779297	4.748019	64.709129	116.329697	-57.211185	-82.588692	-0.000000	0.000002	-30.529099	31.959801	0.575292	0.358909	-7.125019	0.000000	0.000000	4.278533	30.642456	-1.504136	-1.611670	0.000000	0.000000	82.629120	-29.256693	38.764282	-79.967293	59.616222	-51.322624	-0.000000	0.000002	-11.057992	-46.758415	34.325371	-30.947376	7.125019	0.000000	0.000000	-7.333575	14.606068	-9.009206
	9.207290	16.715599	-30.974899	2.052000	1.319870	5.898110	0.000000	0.000000	0.000000	-24.039673	-0.407900	1.380557	11.282646	18.070646	63.696098	-0.233209	14.860286	7.574700	0.704585	-5.365077	-14.952820	0.000000	0.000000	0.000000	21.359890	14.733259	-27.304785	-4.355792	-12.619381	37.959896	-1.041789	-4.716577	-21.529325	-1.007398	6.386488	-17.910019	-2.203900	-3.269400	8.230879	1.220600	-4.491340	1.713700	2.948560	-2.218920	-2.559420	-1.252570	3.014570	-16.387102	-3.268450	4.193921	-5.228870	-0.580088	2.018350	1.129810	-1.252570	-0.000000	0.000000	-73.740089	6.398126	64.567970	114.443466	-57.617393	-80.999329	0.000000	-0.000002	-30.721590	31.969479	0.523337	0.326622	-7.125019	0.000000	0.000000	4.283764	30.581411	-1.512261	-1.252570	-0.000000	0.000000	82.479645	-26.599789	39.330051	-80.999275	59.691647	-52.213215	-0.000000	0.000002	-11.051298	-46.727604	33.996365	-30.706858	7.125019	0.000000	0.000000	-7.423603	14.229945	-9.086478
